<?xml version="1.0" encoding="UTF-8"?>
<svg width="128" height="128" version="1.1" xmlns="http://www.w3.org/2000/svg">
 <path d="m-11.827-11.827h200v200h-200z" fill="none"/>
 <path d="m30.718 59.834c2.2114-1.3584 14.134-7.6936 33.37 0.24648 19.787 8.1658 32.062 1.0746 33.584 0.10938-4.7829-7.8626-10.471-14.706-16.761-19.307 0.41958-0.11492 0.84746-0.23125 1.3003-0.36419 8.3403-2.4122 10.459-9.4744 10.905-15.523 0.50405-6.86 0.853-6.9653 2.343-13.137 1.4291-5.9281-0.16479-7.1134-1.6354-5.917-0.79208 0.6439-7.6881 2.2377-11.777 5.4268-6.6025 5.1512-10.672 14.947-12.517 20.364-0.03462 0.08309-0.28388 0.83638-0.36696 1.0967-0.85993 2.0743-2.5715 2.0688-2.5715 2.0688v0.0013c-0.83085-0.09001-1.6645-0.13846-2.505-0.13846-0.74776 0-1.4941 0.04015-2.2377 0.11218-0.0166 0.0027-0.02629 0-0.04292 0.0013-2.1893 0.32264-3.3926-2.3499-3.6446-2.9869-2.5576-7.3447-9.4384-21.828-24.903-25.724 0 0-2.8083-2.1519-1.9525 1.4872 0.81423 3.4771 2.4981 6.9916 2.1242 12.104-0.1717 2.3596-1.6354 14.459 9.4855 20.757 1.0566 0.59821 1.9954 1.1009 2.8401 1.5246-5.5971 4.4796-10.685 10.718-15.037 17.798z" stroke="#fff" stroke-width="5.7233"/>
 <path d="m88.506 75.085c-1.6354 0-2.9924 0.49158-4.0324 1.4637-1.0524 0.98317-1.5841 2.12-1.5841 3.376v22.233c0 2.9827-0.52897 5.1817-1.5717 6.5374-1.0081 1.31-2.6199 1.947-4.9242 1.947-2.3582 0-3.9645-0.63283-4.9145-1.9331-0.99148-1.3557-1.4928-3.5602-1.4928-6.5512v-22.321c0-1.5204-0.69238-2.7639-2.0051-3.5948-1.7849-1.1244-3.5588-1.5301-5.7176-0.81284-0.65914 0.22017-1.2795 0.50682-1.8459 0.85162-0.60236 0.36696-1.1106 0.82669-1.5135 1.364-0.44589 0.59821-0.67298 1.2477-0.67298 1.9331v22.581c0 2.9883-0.50266 5.1928-1.4941 6.5498-0.9527 1.3003-2.5604 1.9331-4.9131 1.9331-2.361 0-3.9839-0.6356-4.9629-1.94-1.0164-1.3557-1.5329-3.5588-1.5329-6.5443v-22.233c0-1.2573-0.53174-2.3928-1.5855-3.376-1.0399-0.97209-2.4247-1.4637-4.1168-1.4637-1.742 0-3.1794 0.48743-4.2719 1.4471-1.123 0.98317-1.6922 2.1256-1.6922 3.3926v21.887c0 2.7529 0.26864 5.3576 0.79623 7.738 0.5442 2.4344 1.4914 4.5697 2.818 6.3504 1.3404 1.7988 3.16 3.2168 5.4088 4.2235 2.2253 0.99147 5.0086 1.4941 8.2738 1.4941 3.4023 0 6.2521-0.63005 8.4677-1.8749 1.8583-1.0441 3.4245-2.415 4.668-4.0864 1.1992 1.6714 2.7293 3.0423 4.5613 4.085 2.1879 1.2449 5.0806 1.8749 8.6006 1.8749 3.2638 0 6.0361-0.50405 8.2351-1.4969 2.217-1.0053 4.0185-2.4247 5.3617-4.2207 1.3294-1.7863 2.2779-3.923 2.8166-6.3504 0.52758-2.3804 0.79623-4.9851 0.79623-7.7379v-21.886c0-1.2615-0.55113-2.3998-1.6395-3.3857-1.0621-0.96517-2.5175-1.454-4.3204-1.454z" stroke="#fff" stroke-width="5.7233"/>
 <script/>
</svg>
