<?xml version="1.0" encoding="UTF-8"?>
<svg width="128" height="128" version="1.1" xmlns="http://www.w3.org/2000/svg">
 <path d="m-11.827-11.827h200v200h-200z" fill="none"/>
 <path d="m29.821 58.883c2.2665-1.3923 14.486-7.8853 34.201 0.25262 20.279 8.3692 32.861 1.1013 34.421 0.11211-4.902-8.0584-10.732-15.072-17.178-19.788 0.43003-0.11779 0.86857-0.23701 1.3327-0.37326 8.5481-2.4723 10.719-9.7104 11.176-15.91 0.5166-7.0309 0.87425-7.1388 2.4013-13.464 1.4647-6.0757-0.1689-7.2906-1.6761-6.0644-0.81181 0.65994-7.8796 2.2935-12.071 5.562-6.7669 5.2796-10.938 15.319-12.828 20.871-0.03548 0.08515-0.29095 0.85722-0.3761 1.124-0.88135 2.126-2.6355 2.1203-2.6355 2.1203v0.0015c-0.85154-0.09226-1.7059-0.14191-2.5674-0.14191-0.76639 0-1.5314 0.04117-2.2935 0.11497-0.017 0.0028-0.02694 0-0.04399 0.0015-2.2438 0.33068-3.4771-2.4084-3.7354-3.0613-2.6213-7.5277-9.6735-22.372-25.524-26.365 0 0-2.8782-2.2055-2.0011 1.5243 0.83451 3.5637 2.5603 7.1657 2.1771 12.406-0.17598 2.4184-1.6761 14.82 9.7218 21.274 1.0829 0.61311 2.0451 1.1283 2.9109 1.5626-5.7366 4.5912-10.951 10.985-15.411 18.241z" fill="#fff" stroke="#fff"/>
 <path d="m89.049 74.514c-1.6761 0-3.067 0.50383-4.1328 1.5001-1.0786 1.0077-1.6236 2.1728-1.6236 3.4601v22.787c0 3.057-0.54215 5.3108-1.6108 6.7002-1.0332 1.3426-2.6852 1.9954-5.0468 1.9954-2.417 0-4.0633-0.64859-5.0369-1.9812-1.0162-1.3894-1.5299-3.6489-1.5299-6.7144v-22.877c0-1.5583-0.70962-2.8328-2.0551-3.6843-1.8294-1.1524-3.6474-1.5683-5.86-0.83309-0.67556 0.22566-1.3114 0.51944-1.8918 0.87283-0.61737 0.3761-1.1382 0.84728-1.5512 1.3979-0.45699 0.61311-0.68975 1.2787-0.68975 1.9813v23.143c0 3.0627-0.51518 5.3221-1.5314 6.713-0.97644 1.3327-2.6242 1.9812-5.0355 1.9812-2.4198 0-4.0831-0.65142-5.0865-1.9884-1.0417-1.3894-1.5711-3.6474-1.5711-6.7073v-22.787c0-1.2887-0.54499-2.4524-1.625-3.4601-1.0658-0.99631-2.4851-1.5001-4.2194-1.5001-1.7854 0-3.2586 0.49957-4.3783 1.4831-1.151 1.0077-1.7343 2.1785-1.7343 3.4771v22.432c0 2.8214 0.27533 5.491 0.81606 7.9307 0.55776 2.495 1.5285 4.6835 2.8881 6.5086 1.3738 1.8436 3.2387 3.2969 5.5435 4.3287 2.2807 1.0162 5.1334 1.5314 8.4799 1.5314 3.4871 0 6.4079-0.64576 8.6786-1.9216 1.9046-1.0701 3.5098-2.4752 4.7842-4.1882 1.2291 1.713 2.7973 3.118 4.675 4.1867 2.2424 1.2759 5.2072 1.9216 8.8149 1.9216 3.3451 0 6.1865-0.51659 8.4402-1.5342 2.2722-1.0304 4.1186-2.4851 5.4953-4.3258 1.3625-1.8308 2.3346-4.0207 2.8867-6.5086 0.54073-2.4397 0.81606-5.1092 0.81606-7.9307v-22.431c0-1.2929-0.56486-2.4595-1.6804-3.47-1.0886-0.98921-2.5802-1.4902-4.428-1.4902z" fill="#fff" stroke="#fff"/>
 <script/>
</svg>
