<?xml version="1.0" encoding="UTF-8"?>
<svg width="128" height="128" version="1.1" xmlns="http://www.w3.org/2000/svg">
 <path d="m-11.827-11.827h200v200h-200z" fill="none"/>
 <path d="m36.016 47.565c1.8573-1.1409 11.871-6.4618 28.026 0.20701 16.618 6.8583 26.929 0.90251 28.207 0.09188-4.0171-6.6036-8.7948-12.351-14.077-16.216 0.3524-0.09652 0.71177-0.19423 1.0921-0.30588 7.0049-2.026 8.7843-7.9574 9.1588-13.037 0.42334-5.7616 0.71642-5.85 1.9678-11.034 1.2002-4.9789-0.13841-5.9744-1.3735-4.9696-0.66525 0.5408-6.4571 1.8794-9.8915 4.5579-5.5453 4.3264-8.9634 12.554-10.513 17.103-0.02907 0.06977-0.23842 0.70246-0.3082 0.92111-0.72224 1.7422-2.1597 1.7376-2.1597 1.7376v0.0012c-0.69782-0.07561-1.398-0.11629-2.1039-0.11629-0.62803 0-1.2549 0.03373-1.8794 0.09422-0.01393 0.0023-0.02208 0-0.03604 0.0012-1.8387 0.27102-2.8494-1.9736-3.0611-2.5086-2.1481-6.1687-7.9272-18.333-20.916-21.606 0 0-2.3586-1.8073-1.6399 1.2491 0.68386 2.9203 2.0981 5.8721 1.7841 10.166-0.14421 1.9818-1.3735 12.144 7.9667 17.434 0.88738 0.50243 1.6759 0.9246 2.3854 1.2805-4.7009 3.7624-8.9739 9.0018-12.629 14.948z" fill="#fff" stroke="#fff"/>
 <path d="m100.43 55.681c-2.4378 0-4.4607 0.73278-6.0108 2.1818-1.5688 1.4656-2.3614 3.1602-2.3614 5.0324v33.142c0 4.4462-0.78851 7.7241-2.3428 9.7449-1.5027 1.9527-3.9054 2.9022-7.3402 2.9022-3.5153 0-5.9097-0.94332-7.3257-2.8816-1.4779-2.0208-2.2252-5.307-2.2252-9.7656v-33.272c0-2.2664-1.0321-4.1201-2.9889-5.3586-2.6607-1.6761-5.3049-2.2809-8.5229-1.2117-0.98254 0.3282-1.9073 0.75548-2.7515 1.2695-0.89791 0.547-1.6555 1.2323-2.2561 2.0332-0.66466 0.89172-1.0032 1.8598-1.0032 2.8816v33.66c0 4.4545-0.74929 7.7406-2.2272 9.7635-1.4201 1.9382-3.8166 2.8816-7.3237 2.8816-3.5194 0-5.9386-0.94743-7.398-2.8919-1.5151-2.0208-2.285-5.3049-2.285-9.7552v-33.142c0-1.8743-0.79264-3.5669-2.3635-5.0324-1.5502-1.449-3.6144-2.1818-6.1368-2.1818-2.5967 0-4.7393 0.72658-6.3679 2.157-1.674 1.4656-2.5224 3.1685-2.5224 5.0572v32.626c0 4.1036 0.40044 7.9863 1.1869 11.535 0.81121 3.6288 2.2231 6.8117 4.2006 9.4663 1.9981 2.6813 4.7104 4.7951 8.0626 6.2957 3.3171 1.478 7.4661 2.2272 12.333 2.2272 5.0717 0 9.3197-0.93921 12.622-2.7949 2.7701-1.5564 5.1047-3.5999 6.9583-6.0914 1.7876 2.4914 4.0685 4.535 6.7994 6.0893 3.2614 1.8557 7.5734 2.7949 12.821 2.7949 4.8652 0 8.9977-0.75135 12.276-2.2314 3.3047-1.4986 5.9902-3.6144 7.9924-6.2916 1.9816-2.6628 3.3955-5.8478 4.1985-9.4663 0.78645-3.5483 1.1869-7.431 1.1869-11.535v-32.624c0-1.8805-0.82153-3.5772-2.444-5.0469-1.5832-1.4387-3.7526-2.1674-6.4402-2.1674z" fill="#fff" stroke="#fff"/>
 <script/>
</svg>
