<svg xmlns="http://www.w3.org/2000/svg" width="128" height="128"><path fill="none" d="M-11.827-11.827h200v200h-200z"/><path stroke="#fff" stroke-width=".726" d="M46.506 43.994c1.16-.712 7.409-4.033 17.492.13 10.372 4.28 16.806.562 17.604.057-2.507-4.122-5.489-7.709-8.786-10.121.22-.06.445-.122.682-.191 4.372-1.265 5.482-4.967 5.716-8.137.264-3.596.447-3.651 1.228-6.886.75-3.108-.086-3.729-.857-3.102-.415.338-4.03 1.173-6.173 2.845-3.461 2.7-5.595 7.835-6.561 10.674a22.39 22.39 0 0 0-.193.575c-.45 1.087-1.348 1.084-1.348 1.084a12.174 12.174 0 0 0-1.313-.072c-.392 0-.783.021-1.173.059h-.022c-1.148.17-1.779-1.231-1.91-1.565-1.341-3.85-4.948-11.442-13.055-13.484 0 0-1.472-1.128-1.023.78.427 1.822 1.31 3.664 1.113 6.344-.09 1.237-.857 7.58 4.973 10.88a33.77 33.77 0 0 0 1.488.8c-2.934 2.347-5.6 5.617-7.882 9.329zM84.778 102c-7.144-4.426-9.547-5.982-9.397-7.676 0 0 .002-.275.072-.694.174-.898.722-2.43 2.473-3.305.057-.028.106-.06.151-.093 5.566-3.23 9.632-8.43 11.066-14.923-1.444 3.586-12.147 6.373-25.147 6.373-12.995 0-23.7-2.787-25.144-6.373.32 1.457.779 2.847 1.353 4.168.483 2.718 1.134 9.118-1.94 14.722-2.708 4.935-16.078 11.664-35.92 7.801 0 0-.795-.556-1.036-.099-.356.677 1.101 1.223 2.601 1.618 13.814 3.659 34.664 2.17 41.212-3.225 2.988-2.459 4.14-5.772 4.433-9.338l.002.006s.08-.934 1.248-.232c.334.2 1.542.987 1.735 1.876.168 1.265.18 2.819-.474 3.907-.934 1.556-.944 1.78.286 2.658.754.538 3.837 2.804 8.128 5.382.01.007.016.014.027.02.908.546 2.168 1.884 2.168 1.884 1.933 2.235 6.135 6.733 7.964 5.886.864-.4-.037-2.201-.037-2.201s1.438 1.866 2.21 1.23c.586-.485-.344-2.344-.344-2.344s1.255 1.088 2.001.685c.913-.493-.136-3.35-7.316-7.714-7.183-4.368-9.13-5.037-9.3-6.987 0 0-.004-.098.002-.265.056-.43.3-1.341 1.344-1.243a30.047 30.047 0 0 0 10.267-.116v.003l.12-.023c.206-.026.608-.013.61.487-.066.634-.241 1.271-.614 1.829-1.05 1.573-.706 1.79.392 2.8.677.624 3.782 3.356 8.035 5.999.009.006.012.012.022.017.907.546 2.476 2.044 2.476 2.044v-.001c1.762 1.79 5.004 4.788 6.77 4.607 1.194-.122.222-2.179.222-2.179s1.508 1.456 2.25 1.028c.828-.479-.345-2-.345-2s.971.514 1.657.343c.688-.17.86-1.919-6.283-6.341z"/><path stroke="#fff" stroke-width=".726" d="M76.797 51.989c-.857 0-1.569.258-2.114.767-.551.516-.83 1.112-.83 1.77V66.18c0 1.563-.277 2.716-.824 3.427-.528.686-1.373 1.02-2.581 1.02-1.236 0-2.078-.332-2.576-1.013-.52-.71-.782-1.866-.782-3.434v-11.7c0-.797-.363-1.45-1.051-1.885-.936-.589-1.866-.802-2.997-.426-.346.116-.671.266-.968.447a2.815 2.815 0 0 0-.793.715 1.671 1.671 0 0 0-.353 1.013V66.18c0 1.566-.264 2.722-.783 3.433-.5.682-1.342 1.014-2.576 1.014-1.237 0-2.088-.334-2.601-1.017-.533-.71-.804-1.866-.804-3.43V54.524c0-.659-.278-1.254-.83-1.77-.546-.509-1.272-.767-2.159-.767-.913 0-1.666.256-2.239.759-.588.515-.887 1.114-.887 1.778v11.473c0 1.443.141 2.809.418 4.056.285 1.276.781 2.396 1.477 3.329.702.943 1.656 1.686 2.835 2.214 1.166.52 2.625.783 4.337.783 1.783 0 3.277-.33 4.438-.983a7.754 7.754 0 0 0 2.447-2.142 7.444 7.444 0 0 0 2.391 2.141c1.147.653 2.663.983 4.508.983 1.711 0 3.164-.264 4.317-.784 1.162-.527 2.106-1.271 2.81-2.213.697-.936 1.194-2.056 1.477-3.328.276-1.248.417-2.614.417-4.056V54.526c0-.662-.289-1.258-.86-1.775-.556-.506-1.319-.762-2.264-.762z"/></svg>