<?xml version="1.0" encoding="UTF-8"?>
<svg width="128" height="128" version="1.1" xmlns="http://www.w3.org/2000/svg">
 <path d="m-11.827-11.827h200v200h-200z" fill="none"/>
 <path d="m46.506 43.994c1.1592-0.71206 7.4087-4.0328 17.492 0.1292 10.372 4.2803 16.806 0.56326 17.604 0.05734-2.5071-4.1214-5.4889-7.7085-8.7857-10.121 0.21993-0.06024 0.44422-0.12122 0.68157-0.1909 4.3718-1.2644 5.4823-4.9663 5.7161-8.1368 0.26421-3.5959 0.44712-3.651 1.2281-6.8861 0.74908-3.1074-0.08638-3.7287-0.85723-3.1016-0.41519 0.33752-4.0299 1.173-6.1733 2.8446-3.4608 2.7002-5.5941 7.8348-6.5609 10.674-0.01815 0.04355-0.1488 0.43841-0.19235 0.57487-0.45075 1.0873-1.3479 1.0844-1.3479 1.0844v7.26e-4c-0.43551-0.04718-0.87247-0.07258-1.3131-0.07258-0.39196 0-0.78319 0.02105-1.173 0.0588-0.0087 0.0014-0.01378 0-0.0225 7.27e-4 -1.1476 0.16912-1.7783-1.2318-1.9104-1.5657-1.3406-3.8499-4.9474-11.442-13.054-13.484 0 0-1.472-1.128-1.0234 0.77956 0.4268 1.8226 1.3094 3.6648 1.1135 6.3446-0.09 1.2368-0.85723 7.5793 4.9721 10.88 0.55382 0.31357 1.0459 0.57705 1.4887 0.79916-2.9339 2.3481-5.6006 5.6181-7.882 9.3293zm38.272 58.006c-7.1438-4.4262-9.5471-5.9824-9.3968-7.6758 0 0 0.0014-0.2751 0.07185-0.69464 0.17348-0.89715 0.72222-2.4301 2.473-3.3041 0.05734-0.02831 0.10597-0.06097 0.15098-0.09364 5.5658-3.23 9.632-8.43 11.066-14.923-1.4444 3.5864-12.147 6.373-25.147 6.373-12.995 0-23.7-2.7865-25.144-6.373 0.32082 1.4575 0.77884 2.8475 1.353 4.1678 0.48342 2.7183 1.1338 9.1188-1.9402 14.722-2.7081 4.9358-16.078 11.664-35.919 7.8014 0 0-0.79553-0.556-1.0365-0.0987-0.35639 0.67649 1.1011 1.223 2.6007 1.6179 13.814 3.6583 34.664 2.1696 41.212-3.225 2.9876-2.4592 4.1402-5.7727 4.4328-9.338l0.0022 0.0058s0.07984-0.93417 1.2477-0.23227c0.33462 0.20106 1.5424 0.98716 1.7348 1.8763 0.1684 1.2652 0.18001 2.8185-0.47325 3.9065-0.93417 1.5562-0.94433 1.7798 0.28526 2.6581 0.75488 0.53858 3.8376 2.8047 8.1281 5.3822 0.01089 7e-3 0.01669 0.0138 0.02758 0.0196 0.90731 0.54656 2.1681 1.885 2.1681 1.885 1.9322 2.2349 6.1349 6.7322 7.964 5.8852 0.86376-0.39994-0.03701-2.2008-0.03701-2.2008s1.4372 1.8662 2.2088 1.2296c0.58721-0.48487-0.34333-2.3438-0.34333-2.3438s1.255 1.088 2.0012 0.6852c0.91312-0.49286-0.13573-3.3491-7.3158-7.7136-7.183-4.3682-9.1297-5.0374-9.301-6.987 0 0-0.0029-0.09799 0.0029-0.26566 0.05589-0.43043 0.3005-1.3406 1.3443-1.2427 1.554 0.25114 3.156 0.38543 4.7964 0.38543 1.8778 0 3.7069-0.17203 5.47-0.50084l7.26e-4 0.0022s0.09219-0.01815 0.11904-0.0225c0.20614-0.02613 0.60826-0.01307 0.60971 0.48704-0.06533 0.63367-0.24026 1.271-0.61334 1.8284-1.0503 1.5736-0.70553 1.7899 0.39196 2.801 0.67722 0.6235 3.7824 3.3549 8.0351 5.9984 0.0087 6e-3 0.01234 0.0116 0.0225 0.0167 0.90658 0.54584 2.4751 2.044 2.4751 2.044v-7.3e-4c1.7624 1.7899 5.004 4.7877 6.77 4.607 1.1947-0.12195 0.22211-2.179 0.22211-2.179s1.5083 1.456 2.2494 1.0278c0.82892-0.47833-0.34405-1.9997-0.34405-1.9997s0.97119 0.5139 1.6571 0.34332c0.6881-0.1713 0.86013-1.9191-6.2829-6.3417z" stroke="#fff" stroke-width=".72585"/>
 <path d="m76.797 51.989c-0.85723 0-1.5686 0.25768-2.1137 0.76722-0.55164 0.51535-0.83037 1.1113-0.83037 1.7696v11.654c0 1.5635-0.27728 2.7161-0.82384 3.4267-0.52842 0.68665-1.3733 1.0205-2.5811 1.0205-1.2361 0-2.0781-0.33171-2.576-1.0133-0.51971-0.71061-0.78246-1.8662-0.78246-3.434v-11.7c0-0.79698-0.36292-1.4488-1.051-1.8843-0.93562-0.58939-1.8654-0.80206-2.997-0.42607-0.3455 0.11541-0.67068 0.26566-0.96756 0.4464-0.31574 0.19235-0.58213 0.43333-0.79335 0.71496-0.23372 0.31357-0.35276 0.65399-0.35276 1.0133v11.836c0 1.5664-0.26348 2.7219-0.78319 3.4333-0.49938 0.68157-1.3421 1.0133-2.5753 1.0133-1.2376 0-2.0883-0.33316-2.6014-1.0169-0.53277-0.71061-0.80352-1.8654-0.80352-3.4304v-11.654c0-0.65907-0.27873-1.2543-0.8311-1.7696-0.54511-0.50955-1.271-0.76722-2.1579-0.76722-0.91312 0-1.6665 0.2555-2.2392 0.75851-0.58866 0.51535-0.88699 1.1142-0.88699 1.7783v11.473c0 1.443 0.14081 2.8083 0.41736 4.056 0.28526 1.276 0.78174 2.3953 1.4771 3.3287 0.70262 0.94288 1.6564 1.6861 2.8352 2.2138 1.1664 0.51971 2.6254 0.78319 4.3369 0.78319 1.7834 0 3.2772-0.33026 4.4386-0.9828 0.97409-0.54729 1.795-1.2659 2.4468-2.142 0.62858 0.8761 1.4306 1.5947 2.3909 2.1413 1.1468 0.65254 2.6631 0.9828 4.5082 0.9828 1.7108 0 3.164-0.26421 4.3166-0.78464 1.1621-0.52697 2.1064-1.271 2.8105-2.2124 0.69681-0.93635 1.194-2.0563 1.4764-3.3287 0.27655-1.2477 0.41736-2.6131 0.41736-4.056v-11.472c0-0.66125-0.28889-1.2579-0.8594-1.7747-0.55672-0.50592-1.3196-0.76214-2.2646-0.76214z" stroke="#fff" stroke-width=".72585"/>
 <script/>
</svg>
