<?xml version="1.0" encoding="UTF-8"?>
<svg width="128" height="128" version="1.1" xmlns="http://www.w3.org/2000/svg">
 <path d="m-11.827-11.827h200v200h-200z" fill="none"/>
 <path d="m41.922 38.721c1.4647-0.89975 9.3616-5.0958 22.102 0.16326 13.106 5.4086 21.236 0.71173 22.244 0.07245-3.1679-5.2077-6.9357-9.7404-11.101-12.788 0.2779-0.07612 0.56131-0.15317 0.86123-0.24122 5.5241-1.5977 6.9274-6.2753 7.2228-10.282 0.33385-4.5437 0.56498-4.6134 1.5519-8.7012 0.94652-3.9264-0.10915-4.7115-1.0832-3.9191-0.52463 0.42649-5.0922 1.4822-7.8006 3.5944-4.3731 3.4119-7.0687 9.9-8.2903 13.488-0.02293 0.05503-0.18802 0.55397-0.24305 0.7264-0.56957 1.3739-1.7032 1.3703-1.7032 1.3703v9.18e-4c-0.55031-0.05962-1.1024-0.09171-1.6592-0.09171-0.49528 0-0.98963 0.0266-1.4822 0.0743-0.01099 0.0018-0.01741 0-0.02843 9.18e-4 -1.4501 0.2137-2.2471-1.5564-2.414-1.9783-1.694-4.8647-6.2515-14.457-16.494-17.038 0 0-1.86-1.4253-1.2932 0.98505 0.5393 2.303 1.6546 4.6308 1.4069 8.017-0.11372 1.5629-1.0832 9.5771 6.2826 13.748 0.6998 0.39622 1.3216 0.72915 1.8811 1.0098-3.7072 2.9671-7.0769 7.0989-9.9596 11.788zm48.36 73.296c-9.0268-5.5929-12.064-7.5594-11.874-9.6991 0 0 0.0018-0.34761 0.09079-0.87773 0.2192-1.1336 0.91259-3.0707 3.1248-4.175 0.07246-0.03577 0.13391-0.07704 0.19077-0.11832 7.0329-4.0814 12.171-10.652 13.983-18.857-1.8252 4.5318-15.349 8.0528-31.776 8.0528-16.42 0-29.947-3.521-31.772-8.0528 0.40539 1.8417 0.98413 3.5981 1.7096 5.2664 0.61084 3.4348 1.4326 11.522-2.4516 18.602-3.422 6.2368-20.315 14.738-45.386 9.8578 0 0-1.0052-0.70256-1.3097-0.12472-0.45033 0.85481 1.3914 1.5454 3.2862 2.0444 17.455 4.6226 43.801 2.7414 52.074-4.075 3.7751-3.1074 5.2316-7.2943 5.6012-11.799l0.0028 0.0073s0.10088-1.1804 1.5766-0.2935c0.42282 0.25406 1.949 1.2474 2.192 2.3709 0.21278 1.5986 0.22746 3.5614-0.598 4.9362-1.1804 1.9664-1.1932 2.2489 0.36045 3.3587 0.95386 0.68054 4.8491 3.544 10.271 6.8008 0.01376 9e-3 0.02109 0.0174 0.03485 0.0248 1.1465 0.69063 2.7396 2.3819 2.7396 2.3819 2.4415 2.824 7.752 8.5068 10.063 7.4365 1.0914-0.50536-0.04677-2.7809-0.04677-2.7809s1.816 2.3581 2.791 1.5537c0.742-0.61267-0.43383-2.9616-0.43383-2.9616s1.5858 1.3748 2.5287 0.86581c1.1538-0.62277-0.17151-4.2318-9.2442-9.7468-9.0764-5.5196-11.536-6.3652-11.753-8.8287 0 0-0.0037-0.12382 0.0037-0.33569 0.07062-0.54388 0.37971-1.694 1.6986-1.5702 1.9637 0.31734 3.9879 0.48702 6.0607 0.48702 2.3727 0 4.684-0.21737 6.9118-0.63285l9.17e-4 3e-3s0.11649-0.0229 0.15042-0.0284c0.26048-0.033 0.76859-0.0165 0.77043 0.61542-0.08255 0.8007-0.30358 1.606-0.77501 2.3104-1.3272 1.9884-0.8915 2.2618 0.49527 3.5394 0.85572 0.78786 4.7794 4.2392 10.153 7.5795 0.01099 8e-3 0.01559 0.0147 0.02843 0.0211 1.1456 0.68971 3.1276 2.5828 3.1276 2.5828v-9.2e-4c2.2269 2.2618 6.323 6.0497 8.5545 5.8213 1.5097-0.1541 0.28066-2.7534 0.28066-2.7534s1.9059 1.8398 2.8423 1.2987c1.0474-0.60441-0.43474-2.5268-0.43474-2.5268s1.2272 0.64936 2.0939 0.43382c0.86948-0.21646 1.0869-2.425-7.9391-8.0134z" stroke="#fff" stroke-width="3.7908"/>
 <path d="m80.197 48.823c-1.0832 0-1.982 0.3256-2.6708 0.96945-0.69705 0.6512-1.0492 1.4042-1.0492 2.2361v14.726c0 1.9756-0.35036 3.4321-1.041 4.33-0.66771 0.86765-1.7353 1.2895-3.2615 1.2895-1.5619 0-2.6259-0.41915-3.2551-1.2804-0.6567-0.89792-0.98871-2.3581-0.98871-4.3392v-14.784c0-1.0071-0.45859-1.8307-1.3281-2.381-1.1822-0.74475-2.3571-1.0135-3.787-0.53838-0.43658 0.14583-0.84747 0.33568-1.2226 0.56406-0.39897 0.24305-0.73558 0.54755-1.0025 0.90342-0.29533 0.39622-0.44575 0.82638-0.44575 1.2804v14.956c0 1.9793-0.33293 3.4394-0.98963 4.3382-0.63102 0.86123-1.6959 1.2804-3.2541 1.2804-1.5638 0-2.6387-0.42098-3.2872-1.285-0.67321-0.89792-1.0153-2.3571-1.0153-4.3346v-14.726c0-0.8328-0.3522-1.5849-1.0502-2.2361-0.6888-0.64386-1.606-0.96945-2.7268-0.96945-1.1538 0-2.1058 0.32285-2.8295 0.95845-0.74383 0.65119-1.1208 1.4079-1.1208 2.2471v14.497c0 1.8233 0.17793 3.5486 0.52738 5.1252 0.36045 1.6124 0.9878 3.0267 1.8665 4.2062 0.88783 1.1914 2.093 2.1306 3.5825 2.7974 1.4739 0.6567 3.3174 0.98963 5.4801 0.98963 2.2535 0 4.141-0.41731 5.6085-1.2419 1.2308-0.69155 2.2682-1.5996 3.0918-2.7066 0.79427 1.107 1.8078 2.015 3.0212 2.7057 1.4491 0.82454 3.3651 1.2419 5.6966 1.2419 2.1618 0 3.998-0.33385 5.4544-0.99147 1.4684-0.66587 2.6616-1.606 3.5513-2.7955 0.88049-1.1832 1.5088-2.5984 1.8655-4.2062 0.34944-1.5766 0.52738-3.3018 0.52738-5.1252v-14.496c0-0.83555-0.36504-1.5895-1.0859-2.2425-0.70347-0.63927-1.6674-0.96303-2.8616-0.96303z" stroke="#fff" stroke-width="3.7908"/>
 <script/>
</svg>
